HIERARCHY
ROOT pelvis
{
  OFFSET 0 100 0
  CHANNELS 6 Xposition Yposition Zposition Zrotation Xrotation Yrotation
  JOINT pelvis_right_femur
  {
    OFFSET -10.78128 -3.44521 -0.5502486
    CHANNELS 3 Zrotation Xrotation Yrotation
    JOINT right_femur_tibia
    {
      OFFSET -0.8047443 -44.0398 -0.1307829
      CHANNELS 3 Zrotation Xrotation Yrotation
      JOINT right_tibia_foot
      {
        OFFSET 3.006224 -47.83518 -5
        CHANNELS 3 Zrotation Xrotation Yrotation
        End Site
        {
          OFFSET 0 -5 15
        }
      }
    }
  }
  JOINT pelvis_left_femur
  {
    OFFSET 10.78128 -3.44521 -0.5502486
    CHANNELS 3 Zrotation Xrotation Yrotation
    JOINT left_femur_tibia
    {
      OFFSET 0.8047443 -44.0398 -0.1307829
      CHANNELS 3 Zrotation Xrotation Yrotation
      JOINT left_tibia_foot
      {
        OFFSET -4.370144 -48.10324 -4.275266
        CHANNELS 3 Zrotation Xrotation Yrotation
        End Site
        {
          OFFSET 0 -5 15
        }
      }
    }
  }
  JOINT pelvis_spine1
  {
    OFFSET 0 6.468898 -3.129235
    CHANNELS 3 Zrotation Xrotation Yrotation
    JOINT spine1
    {
      OFFSET 0 23.15396 4.99043
      CHANNELS 3 Zrotation Xrotation Yrotation
      JOINT spine2
      {
        OFFSET 0 20.79997 -5.064912
        CHANNELS 3 Zrotation Xrotation Yrotation
        JOINT neck
        {
          OFFSET 0 14.38658 9.616178
          CHANNELS 3 Zrotation Xrotation Yrotation
          End Site
          {
            OFFSET 0 20 0
          }
        }
      }
      JOINT right_manubrium
      {
        OFFSET -5.722621 16.35077 3.967754
        CHANNELS 3 Zrotation Xrotation Yrotation
        JOINT right_clavicle
        {
          OFFSET -13.16364 1.694482 -4.693211
          CHANNELS 3 Zrotation Xrotation Yrotation
          JOINT right_humerus
          {
            OFFSET -28.5034 -0.3100689 -2.792744
            CHANNELS 3 Zrotation Xrotation Yrotation
            JOINT right_radius
            {
              OFFSET -25.15693 0.02248979 -1.271978
              CHANNELS 3 Zrotation Xrotation Yrotation
              End Site
              {
                OFFSET -15 0 0
              }
            }
          }
        }
      }
      JOINT left_manubrium
      {
        OFFSET 5.722621 16.35077 3.967754
        CHANNELS 3 Zrotation Xrotation Yrotation
        JOINT left_clavicle
        {
          OFFSET 13.16364 1.694482 -4.693211
          CHANNELS 3 Zrotation Xrotation Yrotation
          JOINT left_humerus
          {
            OFFSET 29.39168 -1.063119 -2.237045
            CHANNELS 3 Zrotation Xrotation Yrotation
            JOINT left_radius
            {
              OFFSET 24.59957 -0.9528479 0.9047498
              CHANNELS 3 Zrotation Xrotation Yrotation
              End Site
              {
                OFFSET 15 -0 -0
              }
            }
          }
        }
      }
    }
  }
}
MOTION
Frames: 15
Frame Time: 0.0416666666667
0 103.5113 0 -0.1312357 0.5163044 0.09513605 5.246212 -19.21691 11.75812 -0 40.59122 -0 -6.427939 -16.06646 -3.804245 -6.841716 9.592896 -22.83486 -0 4.466652 -0 11.93937 -15.42885 28.39886 -3.180092 -3.910512 4.901633 2.90791 9.821042 -8.03926 1.414333 21.99227 6.919135 2.134257 -26.63353 10.709 5.764193 -20.72153 11.73847 87.16985 35.88423 -19.5873 -0 0 15.3163 -5.637273 8.471761 4.471068 5.301524 -20.03427 -0.7196614 -94.17792 25.93674 23.33696 0 0 -15.76898 11.25132 16.98019 3.008771
0.2576141 103.8333 1.488661 -0.2469743 0.3436227 0.2081481 5.238159 -19.15183 11.56777 -0 40.86498 -0 -6.61092 -15.60904 -3.91108 -6.746019 9.856042 -22.54447 -0 4.47419 -0 11.42004 -15.59753 28.07394 -3.053334 -3.85098 4.783294 2.885737 9.779493 -8.0604 1.394449 22.09571 6.978872 2.059751 -26.6851 10.77512 5.405624 -20.72154 11.63331 87.54116 35.28892 -19.76525 -0 0 15.01052 -5.838601 8.410082 4.523659 5.231947 -20.1941 -0.7959452 -94.14201 26.35875 23.27921 0 0 -16.08361 10.78123 17.05955 3.684305
0.5530317 103.8108 3.101752 -0.5515784 2.527898 0.2717879 7.016468 -25.42625 11.51165 -0 31.89853 -0 -5.669908 -15.23798 -3.305566 -6.669679 10.44538 -22.91927 -0 4.189519 -0 10.36338 -19.0959 27.72595 -2.893763 -3.170392 5.248858 2.931157 9.306958 -8.105848 1.745602 20.92058 7.178771 3.049811 -26.94514 10.76575 6.333065 -20.17253 11.42418 86.44965 37.60688 -20.29665 -0 0 16.07185 -4.889759 9.519207 3.463381 6.88539 -20.60619 -0.1901586 -94.78566 27.17689 23.34934 0 0 -18.89148 10.10836 17.40454 4.550813
0.8952481 103.5743 4.867509 -0.7429229 4.024341 0.3684419 8.161544 -29.17254 11.63962 -0 26.75174 -0 -5.065502 -14.00986 -2.622132 -6.64875 10.58559 -22.99626 -0 4.252207 -0 9.539018 -21.21037 27.18519 -2.849794 -2.680064 5.528795 2.986035 9.077661 -8.097166 1.935683 20.07972 7.334431 3.745762 -27.25955 10.74928 7.110782 -19.80507 11.36383 85.60644 39.29528 -20.44311 -0 0 16.79055 -4.23697 10.14474 2.838252 7.841226 -20.71563 0.1864853 -95.37042 27.4357 23.73564 0 0 -19.97515 9.872947 17.30592 4.775941
1.268916 103.1592 7.048394 -1.05877 5.070687 0.5695387 8.97055 -32.40429 11.13594 -0 22.36763 -0 -4.897394 -11.53885 -1.89647 -6.435058 11.18537 -22.22485 -0 4.700211 -0 7.97368 -22.94546 25.62016 -2.64919 -2.119523 5.465259 3.053817 8.923737 -8.140548 1.995502 19.42456 7.537972 4.277132 -27.56712 10.68705 7.339613 -19.34575 11.24681 85.33367 39.82825 -20.72101 -0 0 16.73726 -4.277691 10.47786 2.638167 8.538801 -21.03425 0.3051927 -95.2001 27.32415 23.30063 0 0 -21.04255 9.827629 16.74616 4.623042
1.658653 102.6198 9.763538 -1.429103 5.746827 0.8882716 9.453706 -34.78139 10.31357 -0 18.99494 -0 -5.042494 -8.850196 -1.219775 -6.134437 11.9914 -21.03484 -0 5.642907 -0 6.167585 -23.96585 23.55107 -2.365734 -1.639329 5.184439 3.155472 8.824988 -8.233391 1.941606 18.97304 7.74018 4.610885 -27.83696 10.60025 7.256849 -18.84932 11.13384 85.44194 39.70242 -21.08451 -0 0 16.15896 -4.685971 10.59252 2.720628 8.932403 -21.40007 0.2717262 -94.55801 26.89222 22.38598 0 0 -21.86262 10.01076 15.93918 4.076423
2.045099 102.0156 13.13546 -1.855242 6.024732 1.311381 9.615366 -36.27567 9.104608 -0 16.4242 -0 -5.528684 -6.189641 -0.6274797 -5.754132 13.04752 -19.44203 -0 7.430408 -0 4.171968 -24.16119 21.04156 -1.971109 -1.27418 4.688978 3.288416 8.77371 -8.387777 1.775936 18.74906 7.934389 4.73395 -28.01993 10.48019 6.822216 -18.28777 11.01639 85.99708 38.91264 -21.60901 -0 0 14.98573 -5.484433 10.53362 3.058526 9.027368 -21.84759 0.08245569 -93.40341 26.12446 20.89718 0 0 -22.61012 10.39754 14.95723 3.143333
2.412654 101.4337 17.22631 -2.280459 5.908459 1.792393 9.513953 -36.71113 7.639137 -0 14.61338 -0 -6.299999 -3.894031 -0.1544366 -5.356032 14.14103 -17.62838 -0 10.41055 -0 2.223126 -23.44335 18.39477 -1.487647 -1.06751 4.073747 3.425529 8.784344 -8.57409 1.529344 18.75653 8.092191 4.663939 -28.06559 10.32139 6.126644 -17.69044 10.92084 86.92401 37.66765 -22.2595 -0 0 13.35654 -6.57625 10.37735 3.565992 8.827513 -22.32296 -0.2481215 -91.96097 25.07582 19.08652 0 0 -23.23553 10.89241 13.95482 1.969271
2.74704 100.9874 22.04046 -2.638582 5.362258 2.258871 9.230413 -35.89503 6.057631 -0 13.5243 -0 -7.317899 -2.183493 0.1337627 -4.97721 15.00608 -15.7309 -0 14.97469 -0 0.5080257 -21.78268 15.88638 -0.9277208 -1.040778 3.445066 3.517014 8.891567 -8.751708 1.243657 19.00271 8.176991 4.423042 -27.90805 10.10988 5.218504 -17.10722 10.86773 88.17758 36.08216 -22.99713 -0 0 11.41944 -7.92076 10.19771 4.179118 8.34005 -22.79737 -0.7307284 -90.44153 23.84147 17.21475 0 0 -23.72021 11.36122 13.09486 0.7819698
3.032862 100.8062 27.50629 -2.853022 4.357972 2.621764 8.878397 -33.68072 4.564446 -0 13.08263 -0 -8.511443 -1.221708 0.1454988 -4.630102 15.27324 -13.90074 -0 21.39433 -0 -0.8227691 -19.25927 13.79407 -0.3100281 -1.186767 2.945605 3.493583 9.144227 -8.863893 0.9833066 19.47223 8.135827 4.048312 -27.48318 9.829898 4.153092 -16.62853 10.87608 89.67511 34.26194 -23.74342 -0 0 9.421486 -9.474093 10.08249 4.841053 7.595787 -23.2374 -1.373066 -89.07903 22.58876 15.61661 0 0 -24.03977 11.63563 12.55732 -0.09484273
3.251307 101.0093 33.46698 -2.858279 2.89993 2.79333 8.561046 -30.05058 3.370703 -0 13.12179 -0 -9.762271 -1.087685 -0.2071416 -4.292442 14.5212 -12.28353 -0 29.63851 -0 -1.699913 -16.09367 12.3393 0.3363579 -1.454272 2.732212 3.283033 9.589921 -8.845491 0.8299265 20.11125 7.906119 3.589862 -26.75337 9.471166 2.993862 -16.37919 10.95602 91.27371 32.31143 -24.36292 -0 0 7.705582 -11.18862 10.13664 5.518623 6.662125 -23.59986 -2.161805 -88.07883 21.52201 14.63963 0 0 -24.17674 11.54776 12.48907 -0.312561
3.383497 101.6617 39.68861 -2.625883 1.066931 2.713152 8.315231 -25.18516 2.617399 -0 13.36724 -0 -10.88682 -1.756363 -0.9395842 -3.919799 12.37075 -10.99822 -0 39.1138 -0 -2.149798 -12.66116 11.64025 0.957509 -1.739613 2.932845 2.839763 10.24104 -8.633216 0.8613272 20.81679 7.442055 3.107492 -25.74348 9.044876 1.835754 -16.49088 11.1031 92.73456 30.39224 -24.6445 -0 0 6.67929 -13.00477 10.48464 6.216372 5.649089 -23.81369 -3.036272 -87.59248 20.8165 14.58286 0 0 -24.09537 10.97431 12.93287 0.3835978
3.422924 102.729 45.90302 -2.185602 -0.9576667 2.372822 8.083954 -19.46412 2.299628 -0 13.49794 -0 -11.65118 -3.105414 -1.913931 -3.47649 8.640861 -10.09001 -0 48.50875 -0 -2.273255 -9.437074 11.6692 1.462039 -1.905475 3.57882 2.181656 11.03114 -8.186672 1.106634 21.45483 6.763383 2.658541 -24.56461 8.599173 0.8179091 -17.03987 11.29518 93.72991 28.77486 -24.32698 -0 0 6.694639 -14.85893 11.24812 6.980875 4.694556 -23.77791 -3.873481 -87.68143 20.52407 15.58355 0 0 -23.71591 9.910742 13.76255 1.977424
3.392372 104.0623 51.88374 -1.623023 -2.892381 1.824506 7.755533 -13.37454 2.254133 -0 13.28369 -0 -11.83882 -4.962681 -2.81607 -2.961356 3.495804 -9.491734 -0 55.97447 -0 -2.186941 -6.860542 12.24909 1.728682 -1.838399 4.555285 1.411145 11.79551 -7.517353 1.500197 21.9119 5.995534 2.283379 -23.39649 8.215941 0.1081829 -17.97662 11.4979 93.91601 27.82459 -23.18383 -0 0 7.87373 -16.68864 12.47738 7.871145 3.926649 -23.39567 -4.506453 -88.27734 20.52011 17.50111 0 0 -22.91173 8.550833 14.69687 4.047414
3.348993 105.4393 57.51942 -1.048786 -4.426883 1.164298 7.252406 -7.367999 2.241458 -0 12.70703 -0 -11.3646 -7.157766 -3.26387 -2.395733 -2.529118 -9.034536 -0 59.7537 -0 -1.960241 -5.168901 13.12395 1.653963 -1.518526 5.624846 0.6928403 12.31931 -6.709207 1.883982 22.15184 5.341544 1.999474 -22.41841 7.970647 -0.1564453 -19.11028 11.67682 93.06153 27.8577 -21.13008 -0 0 9.998378 -18.40987 14.0484 8.894214 3.418932 -22.64173 -4.787245 -89.17091 20.55894 19.89899 0 0 -21.54907 7.286514 15.41913 5.836481
